HIERARCHY
ROOT Hips
{
	OFFSET 0.000000 0.000000 0.000000
	CHANNELS 6 Xposition Yposition Zposition Zrotation Xrotation Yrotation
	JOINT Spine
	{
		OFFSET 0.000000 -0.000001 7.447072
		CHANNELS 6 Xposition Yposition Zposition Zrotation Xrotation Yrotation
		JOINT Spine1
		{
			OFFSET 0.000000 -0.000003 20.322411
			CHANNELS 6 Xposition Yposition Zposition Zrotation Xrotation Yrotation
			JOINT Neck
			{
				OFFSET 0.000000 -0.000004 22.138769
				CHANNELS 6 Xposition Yposition Zposition Zrotation Xrotation Yrotation
				JOINT Head
				{
					OFFSET 0.000000 -1.816361 14.076782
					CHANNELS 6 Xposition Yposition Zposition Zrotation Xrotation Yrotation
					End Site
					{
						OFFSET 0.000000 -0.000003 18.163588
					}
				}
			}
			JOINT LeftShoulder
			{
				OFFSET 3.657673 0.480121 17.875921
				CHANNELS 6 Xposition Yposition Zposition Zrotation Xrotation Yrotation
				JOINT LeftArm
				{
					OFFSET 13.051597 0.000000 0.000000
					CHANNELS 6 Xposition Yposition Zposition Zrotation Xrotation Yrotation
					JOINT LeftForeArm
					{
						OFFSET 25.592106 0.000000 0.000000
						CHANNELS 6 Xposition Yposition Zposition Zrotation Xrotation Yrotation
						JOINT LeftHand
						{
							OFFSET 23.784546 0.000000 0.000000
							CHANNELS 6 Xposition Yposition Zposition Zrotation Xrotation Yrotation
							End Site
							{
								OFFSET 13.622693 0.000000 0.000000
							}
						}
					}
				}
			}
			JOINT RightShoulder
			{
				OFFSET -3.607208 0.480121 17.875921
				CHANNELS 6 Xposition Yposition Zposition Zrotation Xrotation Yrotation
				JOINT RightArm
				{
					OFFSET -13.051593 0.000000 0.000000
					CHANNELS 6 Xposition Yposition Zposition Zrotation Xrotation Yrotation
					JOINT RightForeArm
					{
						OFFSET -25.592108 0.000000 0.000000
						CHANNELS 6 Xposition Yposition Zposition Zrotation Xrotation Yrotation
						JOINT RightHand
						{
							OFFSET -23.784546 0.000000 0.000000
							CHANNELS 6 Xposition Yposition Zposition Zrotation Xrotation Yrotation
							End Site
							{
								OFFSET -13.622693 0.000000 0.000000
							}
						}
					}
				}
			}
		}
	}
	JOINT LeftUpLeg
	{
		OFFSET 9.081795 0.000000 0.000000
		CHANNELS 6 Xposition Yposition Zposition Zrotation Xrotation Yrotation
		JOINT LeftLeg
		{
			OFFSET 0.000000 0.000006 -38.194870
			CHANNELS 6 Xposition Yposition Zposition Zrotation Xrotation Yrotation
			JOINT LeftFoot
			{
				OFFSET 0.000000 0.000007 -40.043045
				CHANNELS 6 Xposition Yposition Zposition Zrotation Xrotation Yrotation
				JOINT LeftToeBase
				{
					OFFSET 0.000000 -13.622693 -5.903168
					CHANNELS 6 Xposition Yposition Zposition Zrotation Xrotation Yrotation
					End Site
					{
						OFFSET 0.000000 -3.632718 0.000000
					}
				}
			}
		}
	}
	JOINT RightUpLeg
	{
		OFFSET -9.081795 0.000000 0.000000
		CHANNELS 6 Xposition Yposition Zposition Zrotation Xrotation Yrotation
		JOINT RightLeg
		{
			OFFSET 0.000000 0.000006 -38.194870
			CHANNELS 6 Xposition Yposition Zposition Zrotation Xrotation Yrotation
			JOINT RightFoot
			{
				OFFSET 0.000000 0.000007 -40.043045
				CHANNELS 6 Xposition Yposition Zposition Zrotation Xrotation Yrotation
				JOINT RightToeBase
				{
					OFFSET 0.000000 -13.622693 -5.903168
					CHANNELS 6 Xposition Yposition Zposition Zrotation Xrotation Yrotation
					End Site
					{
						OFFSET 0.000000 -3.632718 0.000000
					}
				}
			}
		}
	}
}
MOTION
Frames: 4
Frame Time: 0.041667
6.332926 0.737414 80.006386 1.173671 3.666732 -0.807124 0.000001 -0.000002 7.447073 -1.847647 -18.301598 1.405340 -0.000001 -0.000008 20.322416 0.089737 18.376771 -4.911330 -0.000001 -0.000005 22.138775 5.272013 9.340851 -6.605152 0.000003 -1.816358 14.076797 6.102323 6.234609 5.064290 3.657673 0.480120 17.875938 -0.029521 -8.784563 -20.891071 13.051604 0.000001 0.000010 -10.647318 -2.311624 14.178438 25.592106 -0.000001 -0.000010 -9.479159 -8.495363 -6.457837 23.784561 -0.000005 0.000012 -0.717916 -9.070248 7.188579 -3.607210 0.480120 17.875929 -9.378211 -5.306543 17.114528 -13.051597 -0.000003 -0.000009 24.952496 26.723916 -9.875352 -25.592093 -0.000006 -0.000006 73.866010 38.811327 44.489438 -23.784555 0.000003 0.000010 0.558090 5.926860 34.414294 9.081796 -0.000001 -0.000002 -1.840468 -6.981017 2.265687 -0.000000 0.000006 -38.194866 1.892999 13.521550 -1.381336 -0.000000 0.000004 -40.043041 21.597673 -6.174147 -0.554624 -0.000003 -13.622693 -5.903168 -0.000001 0.000001 0.000001 -9.081795 -0.000000 0.000002 0.775960 -5.844595 -1.143924 0.000000 0.000006 -38.194866 -0.759460 12.801838 -1.718270 -0.000000 0.000007 -40.043049 -21.609684 -11.746231 -3.434375 0.000000 -13.622693 -5.903168 -0.000001 -0.000001 -0.000001 
6.360225 0.752451 80.011147 1.178011 3.740224 -0.831998 -0.000000 -0.000001 7.447065 -1.845118 -18.272247 1.407582 0.000000 -0.000008 20.322416 0.083549 18.292092 -4.890130 0.000001 -0.000002 22.138760 5.288404 9.301896 -6.592268 -0.000001 -1.816369 14.076795 6.121634 6.223247 5.064262 3.657673 0.480121 17.875919 0.000631 -8.769754 -20.866563 13.051595 -0.000000 -0.000016 -10.651701 -2.437838 14.183762 25.592115 -0.000001 0.000009 -9.473699 -8.444765 -6.427880 23.784550 -0.000001 0.000017 -0.718192 -9.017013 7.196827 -3.607209 0.480123 17.875923 -9.345516 -5.292752 17.140361 -13.051593 -0.000001 -0.000008 24.907342 26.773788 -9.923799 -25.592094 -0.000010 -0.000008 73.868428 38.846786 44.595121 -23.784548 0.000014 0.000008 0.516386 5.855656 34.416183 9.081795 0.000000 -0.000005 -1.826027 -7.566439 2.288691 0.000001 0.000006 -38.194870 1.602105 14.514475 -1.266243 -0.000001 0.000003 -40.043045 21.905878 -6.489523 -0.503469 -0.000001 -13.622693 -5.903168 -0.000002 0.000002 0.000001 -9.081796 0.000000 -0.000007 0.793063 -5.936825 -1.049029 0.000000 0.000007 -38.194874 -0.736735 12.826175 -1.815644 -0.000000 0.000005 -40.043041 -21.623747 -11.758551 -3.418324 -0.000000 -13.622693 -5.903167 0.000002 -0.000000 0.000001 
6.391665 0.771586 80.017380 1.198488 3.814530 -0.857657 -0.000000 -0.000002 7.447075 -1.853329 -18.220088 1.408539 0.000001 -0.000005 20.322416 0.072852 18.185454 -4.868223 -0.000001 -0.000004 22.138760 5.299134 9.241393 -6.559156 -0.000002 -1.816360 14.076758 6.133125 6.236980 5.039939 3.657674 0.480122 17.875912 0.019820 -8.754151 -20.850582 13.051592 0.000002 -0.000005 -10.647688 -2.456207 14.207600 25.592117 -0.000001 -0.000003 -9.499442 -8.457287 -6.430993 23.784571 0.000006 -0.000008 -0.712839 -9.030795 7.182730 -3.607211 0.480122 17.875908 -9.348222 -5.301896 17.151474 -13.051590 -0.000002 -0.000037 24.894984 26.810898 -9.945104 -25.592096 -0.000007 0.000007 73.857151 38.891015 44.678337 -23.784540 0.000001 -0.000001 0.494150 5.832911 34.380102 9.081796 -0.000001 0.000001 -1.776933 -8.212226 2.320679 -0.000001 0.000006 -38.194870 1.367216 15.629915 -1.173526 0.000002 0.000004 -40.043045 22.048952 -6.949745 -0.618631 -0.000001 -13.622693 -5.903168 -0.000005 -0.000001 -0.000000 -9.081796 -0.000001 0.000005 0.811878 -6.032925 -0.949052 -0.000000 0.000006 -38.194881 -0.758925 12.844766 -1.911856 -0.000002 0.000007 -40.043041 -21.628665 -11.753605 -3.419706 -0.000000 -13.622693 -5.903168 -0.000000 0.000001 -0.000000 
6.429399 0.792485 80.023979 1.248936 3.885144 -0.884641 0.000000 -0.000002 7.447081 -1.884037 -18.160966 1.381479 0.000000 -0.000006 20.322416 0.049312 18.078893 -4.802020 -0.000000 -0.000005 22.138786 5.308307 9.188281 -6.540247 0.000000 -1.816367 14.076777 6.145261 6.215324 5.029123 3.657673 0.480120 17.875921 0.051622 -8.720300 -20.851009 13.051600 0.000001 -0.000003 -10.661570 -2.504052 14.230881 25.592119 -0.000001 -0.000002 -9.504001 -8.469719 -6.434646 23.784552 0.000003 0.000013 -0.667247 -9.041063 7.206357 -3.607209 0.480122 17.875952 -9.361451 -5.277566 17.148744 -13.051600 -0.000002 -0.000004 24.852432 26.697526 -9.925084 -25.592094 -0.000011 -0.000005 74.433407 38.424691 44.391291 -23.784552 0.000006 -0.000002 4.027959 6.136426 32.780072 9.081795 -0.000001 0.000011 -1.830830 -8.920417 2.344478 -0.000001 0.000007 -38.194870 0.986415 16.879421 -1.004967 0.000002 0.000005 -40.043041 22.461328 -7.563323 -0.506779 0.000000 -13.622691 -5.903168 0.000000 0.000001 -0.000001 -9.081795 -0.000001 0.000009 0.830541 -6.127320 -0.840834 0.000000 0.000006 -38.194855 -1.177498 12.867646 -1.925632 -0.000001 0.000005 -40.043049 -21.270801 -11.738821 -3.394128 -0.000000 -13.622693 -5.903168 -0.000001 0.000000 0.000000 
